<svg xmlns="http://www.w3.org/2000/svg" viewBox="0 0 600 600">
  <defs>
    <linearGradient id="bg" x1="0" y1="0" x2="1" y2="1">
      <stop stop-color="#1e293b" />
      <stop offset="1" stop-color="#ea580c" />
    </linearGradient>
  </defs>
  <rect width="600" height="600" rx="48" fill="url(#bg)" />
  <rect x="155" y="210" width="290" height="210" rx="28" fill="#fff7ed" opacity=".95" />
  <rect x="185" y="174" width="92" height="54" rx="18" fill="#fdba74" />
  <rect x="323" y="174" width="92" height="54" rx="18" fill="#fb7185" />
  <g stroke="#fff7ed" stroke-linecap="round" stroke-width="8">
    <path d="M104 128v58M104 128l-36-18M104 128l36-18M104 128l-28-34M104 128l28-34" />
    <path d="M490 116v52M490 116l-32-16M490 116l32-16M490 116l-24-30M490 116l24-30" />
  </g>
  <text x="48" y="502" fill="#ffedd5" font-family="Segoe UI, sans-serif" font-size="26" letter-spacing="3">GIFT BOXES</text>
  <text x="48" y="548" fill="#ffffff" font-family="Segoe UI, sans-serif" font-size="46" font-weight="700">Family Combo</text>
</svg>
